<?xml version="1.0" encoding="UTF-8" standalone="no"?>
<svg width="80px" height="78px" viewBox="0 0 80 78" version="1.1" xmlns="http://www.w3.org/2000/svg" xmlns:xlink="http://www.w3.org/1999/xlink">
    <!-- Generator: Sketch 43.2 (39069) - http://www.bohemiancoding.com/sketch -->
    <title>Page 1</title>
    <desc>Created with Sketch.</desc>
    <defs></defs>
    <g id="Page-1" stroke="none" stroke-width="1" fill="none" fill-rule="evenodd">
        <g id="first-login" transform="translate(-350.000000, -179.000000)" fill="#4568DC">
            <g id="Group" transform="translate(155.000000, 88.000000)">
                <path d="M275,131.066103 C275,139.755899 272.45662,147.571397 267.36979,154.512841 C262.28296,161.454291 255.711839,166.257839 247.656251,168.92363 C246.718741,169.096734 246.032986,168.975563 245.598962,168.560115 C245.164927,168.144667 244.947916,167.625365 244.947916,167.002192 L244.947916,156.044805 C244.947916,152.686598 244.045149,150.22856 242.239581,148.670632 C244.218761,148.462911 245.998254,148.151323 247.578119,147.73588 C249.157996,147.320438 250.789917,146.645334 252.473954,145.710582 C254.15799,144.775819 255.564232,143.624702 256.692702,142.257187 C257.821184,140.889671 258.74131,139.072106 259.453129,136.804457 C260.164935,134.536796 260.520827,131.93163 260.520827,128.988878 C260.520827,124.799774 259.149317,121.233892 256.40625,118.291139 C257.690972,115.140654 257.552092,111.609402 255.989587,107.697268 C255.017357,107.38568 253.611115,107.576092 251.770827,108.268504 C249.930551,108.960917 248.333337,109.722554 246.979164,110.553451 L244.999996,111.799791 C241.770814,110.899657 238.437519,110.449596 234.999994,110.449596 C231.562481,110.449596 228.229186,110.899657 225.000004,111.799791 C224.444438,111.418967 223.706603,110.951596 222.786453,110.397669 C221.866314,109.84373 220.416673,109.177293 218.437505,108.398335 C216.458325,107.619365 214.965283,107.38568 213.958333,107.697268 C212.430548,111.609402 212.309016,115.140654 213.59375,118.291139 C210.850683,121.233892 209.479161,124.799774 209.479161,128.988878 C209.479161,131.93163 209.835065,134.528142 210.546871,136.778493 C211.258678,139.028833 212.170136,140.846387 213.281246,142.231223 C214.392368,143.616048 215.789918,144.775819 217.473955,145.710582 C219.157991,146.645334 220.789924,147.320438 222.369789,147.73588 C223.949654,148.151323 225.729159,148.462911 227.708328,148.670632 C226.319434,149.916984 225.468748,151.699919 225.156244,154.019507 C224.427078,154.365713 223.645831,154.625362 222.812504,154.798465 C221.979166,154.971568 220.989588,155.058114 219.843746,155.058114 C218.697916,155.058114 217.560766,154.685956 216.432296,153.941605 C215.303815,153.197265 214.340276,152.115385 213.54167,150.69593 C212.881943,149.588075 212.039936,148.687953 211.015626,147.995529 C209.991316,147.303117 209.13195,146.887674 208.437503,146.749201 L207.395833,146.593407 C206.666663,146.593407 206.163196,146.671298 205.885416,146.827092 C205.607638,146.982886 205.520833,147.181953 205.625,147.424292 C205.729167,147.666644 205.885415,147.908983 206.09375,148.151323 C206.302084,148.393674 206.527776,148.601396 206.770838,148.774499 L207.135421,149.034148 C207.899308,149.380354 208.654515,150.038136 209.401041,151.007518 C210.147568,151.9769 210.694443,152.859713 211.041666,153.655992 L211.562501,154.850393 C212.013896,156.165981 212.777771,157.230552 213.854161,158.044136 C214.930563,158.857722 216.093741,159.377025 217.343755,159.602059 C218.593756,159.827093 219.800346,159.948264 220.963536,159.965575 C222.126738,159.982885 223.090276,159.922299 223.854163,159.783817 L225.052084,159.576093 C225.052084,160.891679 225.060764,162.432277 225.078124,164.197932 C225.095484,165.963585 225.104164,166.89833 225.104164,167.002192 C225.104164,167.625365 224.878473,168.144667 224.427078,168.560115 C223.975694,168.975563 223.281259,169.096734 222.343749,168.92363 C214.28815,166.257839 207.71704,161.454291 202.630209,154.512841 C197.543378,147.571397 195,139.755899 195,131.066103 C195,123.83038 196.788177,117.157344 200.364583,111.046797 C203.94099,104.93625 208.793371,100.098076 214.921871,96.5321476 C221.050383,92.9662193 227.743024,91.1832843 234.999994,91.1832843 C242.256976,91.1832843 248.949617,92.9662193 255.078129,96.5321476 C261.206629,100.098076 266.059005,104.93625 269.63541,111.046797 C273.211827,117.157344 275,123.83038 275,131.066103 Z" id="Page-1"></path>
            </g>
        </g>
    </g>
</svg>