<svg xmlns="http://www.w3.org/2000/svg" width="80" height="78">
  <path fill="#4568DC" fill-rule="evenodd" d="M80 40.066103c0 8.689796-2.54338 16.505294-7.63021 23.446738-5.08683 6.94145-11.657951 11.744998-19.713539 14.410789-.93751.173104-1.623265.051933-2.057289-.363515-.434035-.415448-.651046-.93475-.651046-1.557923V65.044805c0-3.358207-.902767-5.816245-2.708335-7.374173 1.97918-.207721 3.758673-.519309 5.338538-.934752 1.579877-.415442 3.211798-1.090546 4.895835-2.025298 1.684036-.934763 3.090278-2.08588 4.218748-3.453395 1.128482-1.367516 2.048608-3.185081 2.760427-5.45273.711806-2.267661 1.067698-4.872827 1.067698-7.815579 0-4.189104-1.37151-7.754986-4.114577-10.697739 1.284722-3.150485 1.145842-6.681737-.416663-10.593871-.97223-.311588-2.378472-.121176-4.21876.571236-1.840276.692413-3.43749 1.45405-4.791663 2.284947l-1.979168 1.24634c-3.229182-.900134-6.562477-1.350195-10.000002-1.350195-3.437513 0-6.770808.450061-9.99999 1.350195-.555566-.380824-1.293401-.848195-2.213551-1.402122-.920139-.553939-2.36978-1.220376-4.348948-1.999334-1.97918-.77897-3.472222-1.012655-4.479172-.701067-1.527785 3.912134-1.649317 7.443386-.364583 10.593871-2.743067 2.942753-4.114589 6.508635-4.114589 10.697739 0 2.942752.355904 5.539264 1.06771 7.789615.711807 2.25034 1.623265 4.067894 2.734375 5.45273 1.111122 1.384825 2.508672 2.544596 4.192709 3.479359 1.684036.934752 3.315969 1.609856 4.895834 2.025298 1.579865.415443 3.35937.727031 5.338539.934752-1.388894 1.246352-2.23958 3.029287-2.552084 5.348875-.729166.346206-1.510413.605855-2.34374.778958-.833338.173103-1.822916.259649-2.968758.259649-1.14583 0-2.28298-.372158-3.41145-1.116509-1.128481-.74434-2.09202-1.82622-2.890626-3.245675-.659727-1.107855-1.501734-2.007977-2.526044-2.700401-1.02431-.692412-1.883676-1.107855-2.578123-1.246328l-1.04167-.155794c-.72917 0-1.232637.077891-1.510417.233685-.277778.155794-.364583.354861-.260416.5972.104167.242352.260415.484691.46875.727031.208334.242351.434026.450073.677088.623176l.364583.259649c.763887.346206 1.519094 1.003988 2.26562 1.97337.746527.969382 1.293402 1.852195 1.640625 2.648474l.520835 1.194401c.451395 1.315588 1.21527 2.380159 2.29166 3.193743 1.076402.813586 2.23958 1.332889 3.489594 1.557923 1.250001.225034 2.456591.346205 3.619781.363516 1.163202.01731 2.12674-.043276 2.890627-.181758l1.197921-.207724c0 1.315586.00868 2.856184.02604 4.621839.01736 1.765653.02604 2.700398.02604 2.80426 0 .623173-.225691 1.142475-.677086 1.557923-.451384.415448-1.145819.536619-2.083329.363515-8.055599-2.665791-14.626709-7.469339-19.71354-14.410789C2.543378 56.571397 0 48.755899 0 40.066103c0-7.235723 1.788177-13.908759 5.364583-20.019306C8.94099 13.93625 13.793371 9.098076 19.921871 5.5321476 26.050383 1.9662193 32.743024.1832843 39.999994.1832843c7.256982 0 13.949623 1.782935 20.078135 5.3488633C66.206629 9.098076 71.059005 13.93625 74.63541 20.046797 78.211827 26.157344 80 32.83038 80 40.066103z"/>
</svg>