<?xml version="1.0" encoding="UTF-8" standalone="no"?>
<svg width="80px" height="70px" viewBox="0 0 80 70" version="1.1" xmlns="http://www.w3.org/2000/svg" xmlns:xlink="http://www.w3.org/1999/xlink">
    <!-- Generator: Sketch 43.2 (39069) - http://www.bohemiancoding.com/sketch -->
    <title>logo/google-drive</title>
    <desc>Created with Sketch.</desc>
    <defs></defs>
    <g id="Page-1" stroke="none" stroke-width="1" fill="none" fill-rule="evenodd">
        <g id="first-login" transform="translate(-201.000000, -184.000000)">
            <g id="logo/google-drive" transform="translate(201.000000, 184.000000)">
                <g>
                    <g id="#0ba25eff" transform="translate(0.000000, 0.157658)" fill-rule="nonzero" fill="#0BA25E">
                        <path d="M25.84375,0.532882883 C25.9046875,0.444594595 26.0234375,0.268018018 26.084375,0.17972973 L26.19375,0.162387387 C26.275,1.16193694 26.565625,2.12522523 26.784375,3.09797297 C27.725,7.32477477 28.675,11.5484234 29.6640625,15.7626126 C30.3125,18.6524775 31.0359375,21.5281532 31.6296875,24.4290541 C32.1453125,26.2247748 32.421875,28.0772523 32.9203125,29.8761261 C33.2421875,31.5536036 33.746875,33.1900901 34.0171875,34.877027 C33.9078125,35.0614865 33.7984375,35.2475225 33.6875,35.431982 C33.6609375,35.4745495 33.6046875,35.5628378 33.578125,35.606982 L33.5375,35.6779279 C33.53125,35.6905405 33.5171875,35.7173423 33.509375,35.729955 C33.4484375,35.8434685 33.3265625,36.0689189 33.265625,36.1808559 C33.2546875,36.2013514 33.23125,36.2423423 33.21875,36.2628378 L33.1078125,36.4614865 C33.09375,36.4851351 33.0671875,36.5308559 33.0546875,36.5545045 L32.925,36.7831081 C32.91875,36.7957207 32.9046875,36.8209459 32.896875,36.8335586 L32.7359375,37.1173423 C32.721875,37.140991 32.69375,37.1914414 32.6796875,37.2166667 C32.6640625,37.2434685 32.6328125,37.2954955 32.6171875,37.3222973 L32.459375,37.5966216 C32.446875,37.6171171 32.421875,37.6612613 32.409375,37.6817568 L32.3125,37.8472973 C32.296875,37.8756757 32.2625,37.934009 32.246875,37.9623874 C32.184375,38.0711712 32.0609375,38.2887387 31.9984375,38.3990991 C31.9875,38.418018 31.9640625,38.4574324 31.953125,38.4779279 L31.8546875,38.6434685 C31.8390625,38.6734234 31.8046875,38.7301802 31.7875,38.7601351 C31.7296875,38.8626126 31.6109375,39.065991 31.553125,39.1684685 C31.5390625,39.1921171 31.5125,39.240991 31.4984375,39.2646396 L31.38125,39.4774775 C31.3703125,39.4963964 31.3484375,39.5358108 31.3375,39.5547297 L31.2171875,39.7675676 C31.2046875,39.7896396 31.1796875,39.8337838 31.1671875,39.8558559 C31.1046875,39.9599099 30.9828125,40.1695946 30.921875,40.2752252 C30.9078125,40.2988739 30.8796875,40.3477477 30.865625,40.372973 L30.7546875,40.5747748 C30.74375,40.5936937 30.7234375,40.629955 30.7140625,40.6488739 L30.5859375,40.8727477 C30.575,40.8932432 30.5515625,40.9326577 30.540625,40.9515766 C30.475,41.0650901 30.3453125,41.2905405 30.2796875,41.4040541 C30.26875,41.4245495 30.24375,41.4655405 30.23125,41.486036 L30.1375,41.6421171 C30.121875,41.6704955 30.0890625,41.7256757 30.0734375,41.7540541 C30.0140625,41.8581081 29.896875,42.0646396 29.8375,42.1686937 C29.828125,42.186036 29.80625,42.2238739 29.796875,42.2412162 L29.66875,42.4713964 C29.659375,42.4887387 29.640625,42.5218468 29.63125,42.5391892 L29.5,42.7709459 C29.4890625,42.7882883 29.4671875,42.8261261 29.45625,42.8434685 C29.3953125,42.9475225 29.271875,43.1524775 29.2109375,43.2565315 C29.19375,43.2833333 29.1625,43.3400901 29.1453125,43.3684685 L29.053125,43.5418919 C29.040625,43.563964 29.0171875,43.6081081 29.00625,43.6286036 L28.8453125,43.9092342 C28.8328125,43.9328829 28.8046875,43.9801802 28.7921875,44.0038288 C28.778125,44.0259009 28.753125,44.0716216 28.740625,44.0936937 C28.4765625,44.543018 28.2375,45.0065315 27.9453125,45.4385135 C26.28125,48.177027 24.75,51.0006757 23.1390625,53.7722973 C20.5234375,58.3396396 17.9109375,62.906982 15.2953125,67.4743243 C14.903125,68.1853604 14.45625,68.8664414 14.11875,69.609009 C14.1015625,69.6342342 14.0671875,69.6846847 14.05,69.7099099 C13.4234375,68.7986486 12.9390625,67.7927928 12.365625,66.8468468 C9.75,62.2763514 7.1328125,57.7074324 4.51875,53.1353604 C3.065625,50.563964 1.5515625,48.0240991 0.1375,45.4290541 C5.7375,35.6779279 11.3125,25.9094595 16.9015625,16.152027 C16.90625,16.1425676 16.9171875,16.1252252 16.921875,16.1157658 L17.075,15.8509009 C17.08125,15.8398649 17.09375,15.8177928 17.1015625,15.8067568 L17.25625,15.5403153 C17.2703125,15.5166667 17.2984375,15.4662162 17.3140625,15.4425676 C17.3296875,15.4141892 17.3609375,15.359009 17.3765625,15.3306306 L17.53125,15.0531532 C17.5421875,15.0342342 17.5640625,14.9963964 17.575,14.9774775 L17.690625,14.7914414 C17.7109375,14.7614865 17.7515625,14.7 17.771875,14.6684685 C17.828125,14.5833333 17.9421875,14.4114865 18,14.3263514 C18.00625,14.297973 18.0171875,14.2427928 18.0234375,14.215991 L18.159375,13.9527027 C18.165625,13.9416667 18.178125,13.9195946 18.184375,13.9085586 L18.340625,13.6436937 C18.35625,13.6184685 18.3875,13.5648649 18.403125,13.5380631 C18.4203125,13.5081081 18.4546875,13.4466216 18.4734375,13.4150901 L18.6046875,13.1833333 C18.61875,13.1581081 18.646875,13.1092342 18.6609375,13.0855856 L18.7703125,12.8916667 C18.7828125,12.8711712 18.8078125,12.827027 18.8203125,12.804955 C18.88125,12.6993243 19.003125,12.4880631 19.065625,12.3824324 C19.078125,12.3603604 19.103125,12.3162162 19.115625,12.2941441 L19.2296875,12.0844595 C19.2390625,12.0686937 19.2578125,12.034009 19.2671875,12.0182432 L19.4171875,11.7533784 C19.4359375,11.7218468 19.475,11.6572072 19.4953125,11.6256757 L19.596875,11.4711712 C19.61875,11.4396396 19.6609375,11.3781532 19.6828125,11.3481982 C19.7015625,11.3166667 19.740625,11.2536036 19.7609375,11.2220721 L19.8453125,11.0581081 C19.8734375,10.9966216 19.93125,10.8736486 19.959375,10.8121622 L20.0453125,10.6907658 C20.0609375,10.6686937 20.090625,10.6261261 20.10625,10.6040541 C20.1640625,10.5551802 20.28125,10.4542793 20.3390625,10.4038288 L20.328125,10.2193694 C20.3375,10.1972973 20.359375,10.1531532 20.3703125,10.1310811 L20.503125,9.86463964 C20.5140625,9.84572072 20.5359375,9.80630631 20.546875,9.78738739 L20.6640625,9.59504505 C20.6859375,9.56351351 20.728125,9.50045045 20.75,9.46891892 C20.803125,9.38063063 20.9109375,9.20720721 20.9640625,9.1204955 C20.9796875,9.08896396 21.0078125,9.02747748 21.0234375,8.99594595 L21.10625,8.81463964 C21.13125,8.76734234 21.184375,8.67117117 21.2109375,8.6222973 L21.3140625,8.4740991 C21.3359375,8.44414414 21.3796875,8.38423423 21.4015625,8.35427928 C21.4203125,8.32274775 21.459375,8.25968468 21.478125,8.22815315 L21.5546875,8.06576577 C21.571875,8.0295045 21.6078125,7.95540541 21.625,7.91914414 L21.759375,7.65743243 C21.7796875,7.6259009 21.81875,7.55968468 21.8375,7.52657658 L21.940625,7.37207207 C21.9625,7.34054054 22.00625,7.28063063 22.028125,7.2490991 C22.0484375,7.21756757 22.0875,7.15292793 22.10625,7.1213964 L22.1859375,6.95743243 C22.209375,6.91171171 22.2546875,6.82184685 22.2765625,6.77612613 L22.3828125,6.59954955 C22.4015625,6.56959459 22.4390625,6.50968468 22.459375,6.47972973 C22.515625,6.39144144 22.6296875,6.21486486 22.6875,6.12815315 C22.69375,6.10135135 22.7078125,6.04774775 22.7140625,6.02094595 L22.85,5.75923423 C22.8546875,5.7481982 22.8671875,5.7277027 22.8734375,5.71666667 L23.0296875,5.44707207 C23.0453125,5.42027027 23.075,5.36824324 23.090625,5.34144144 C23.10625,5.31621622 23.1359375,5.26261261 23.1515625,5.23738739 L23.3078125,4.96148649 C23.3140625,4.95045045 23.3265625,4.92837838 23.3328125,4.91576577 L23.4796875,4.65878378 C23.4875,4.64774775 23.5015625,4.6240991 23.5078125,4.61148649 L23.665625,4.34346847 C23.6796875,4.31824324 23.7078125,4.27094595 23.721875,4.24572072 C23.7375,4.21891892 23.76875,4.16373874 23.784375,4.13536036 L23.934375,3.86891892 C23.94375,3.85157658 23.9625,3.81846847 23.971875,3.8027027 L24.0984375,3.59617117 C24.11875,3.56621622 24.159375,3.50472973 24.178125,3.47477477 C24.2359375,3.38806306 24.3484375,3.21463964 24.40625,3.12792793 C24.4109375,3.10112613 24.4234375,3.04752252 24.4296875,3.02072072 L24.5625,2.76373874 C24.5734375,2.74481982 24.596875,2.70540541 24.6078125,2.68490991 L24.7265625,2.4972973 C24.7484375,2.46734234 24.7890625,2.40585586 24.8109375,2.37432432 C24.865625,2.28603604 24.975,2.11103604 25.0296875,2.02274775 C25.0375,1.99752252 25.0515625,1.94707207 25.059375,1.92184685 L25.196875,1.66171171 C25.203125,1.6490991 25.215625,1.62702703 25.221875,1.61441441 L25.38125,1.34324324 C25.39375,1.31959459 25.421875,1.2722973 25.4359375,1.24864865 C25.45,1.22184685 25.478125,1.1713964 25.4921875,1.14617117 L25.6484375,0.865540541 C25.65625,0.854504505 25.66875,0.830855856 25.675,0.81981982 L25.8234375,0.565990991 C25.828125,0.558108108 25.8390625,0.540765766 25.84375,0.532882883 Z" id="Shape"></path>
                    </g>
                    <g id="#fccd48ff" transform="translate(26.093750, 0.000000)" fill-rule="nonzero" fill="#FCCD48">
                        <path d="M0.0859375,0.171846847 C5.1609375,0.148198198 10.2375,0.168693694 15.3140625,0.160810811 C19.5140625,0.176576577 23.7171875,0.127702703 27.915625,0.184459459 C27.9984375,0.34527027 28.0828125,0.504504505 28.171875,0.663738739 C28.184375,0.684234234 28.2078125,0.728378378 28.2203125,0.75045045 C28.6265625,1.46463964 29.0390625,2.17567568 29.440625,2.89144144 C29.4484375,2.90405405 29.4609375,2.9277027 29.46875,2.93873874 C30.246875,4.28671171 31.021875,5.63626126 31.7859375,6.99211712 C31.7921875,7.00315315 31.80625,7.02522523 31.8125,7.03783784 C31.9515625,7.27905405 32.0953125,7.52027027 32.2375,7.76306306 C32.25,7.78355856 32.2734375,7.82612613 32.2859375,7.8481982 C32.48125,8.19504505 32.678125,8.54031532 32.8765625,8.88558559 C32.884375,8.89662162 32.896875,8.91869369 32.903125,8.93130631 C33.1015625,9.275 33.296875,9.62184685 33.49375,9.96869369 C33.50625,9.98918919 33.5296875,10.0301802 33.5421875,10.0506757 C33.740625,10.3880631 33.9328125,10.7286036 34.1234375,11.0691441 C34.1359375,11.0896396 34.159375,11.1322072 34.171875,11.1527027 C36.0375,14.4036036 37.8984375,17.6560811 39.7578125,20.9117117 C39.5453125,21.8560811 40.059375,22.7957207 39.7734375,23.7448198 C39.6,26.3382883 38.6296875,28.8623874 37.0296875,30.8993243 C36.509375,31.4684685 37.0140625,32.2583333 36.9578125,32.9331081 C36.396875,33.6189189 35.675,34.1313063 34.99375,34.6846847 C34.9953125,35.2018018 34.996875,35.7189189 34.9734375,36.2376126 C34.365625,36.6427928 33.66875,36.8777027 33.0515625,37.2686937 C32.9859375,37.4783784 32.91875,37.6896396 32.8546875,37.9024775 C32.359375,38.138964 31.8296875,38.2918919 31.334375,38.5315315 C29.3734375,37.963964 27.4328125,37.3317568 25.4765625,36.7468468 C23.65625,36.1398649 21.7921875,35.6637387 19.990625,34.9952703 L19.8875,34.8092342 C19.878125,34.795045 19.8625,34.7666667 19.8546875,34.7524775 L19.70625,34.4986486 C19.690625,34.4718468 19.659375,34.4182432 19.64375,34.3914414 C19.6296875,34.3677928 19.6046875,34.3220721 19.590625,34.2984234 C19.4796875,34.0997748 19.378125,33.8963964 19.2875,33.6882883 L19.278125,33.6677928 L19.2671875,33.652027 C19.1984375,33.5416667 19.059375,33.3193694 18.9890625,33.209009 C18.98125,33.1963964 18.965625,33.1711712 18.9578125,33.156982 L18.9125,33.0844595 C18.8859375,33.0387387 18.83125,32.9488739 18.8046875,32.9031532 C18.7375,32.7880631 18.6015625,32.5578829 18.534375,32.4427928 C18.5171875,32.4144144 18.484375,32.3560811 18.4671875,32.3277027 L18.371875,32.1637387 C18.359375,32.1416667 18.334375,32.0990991 18.321875,32.077027 L18.1703125,31.8137387 C18.1640625,31.8027027 18.15,31.7806306 18.14375,31.768018 L17.984375,31.4921171 C17.9703125,31.4668919 17.9421875,31.4164414 17.928125,31.3927928 C17.9125,31.3644144 17.8796875,31.3060811 17.8640625,31.2777027 L17.734375,31.0475225 C17.71875,31.0207207 17.6875,30.963964 17.671875,30.9371622 L17.571875,30.759009 C17.5578125,30.7353604 17.53125,30.6880631 17.5171875,30.6644144 C17.45625,30.5509009 17.3328125,30.3254505 17.2703125,30.2119369 C17.2640625,30.1993243 17.2484375,30.1725225 17.2421875,30.1599099 L17.2,30.0858108 C17.1703125,30.0416667 17.1125,29.9533784 17.0828125,29.9092342 C16.928125,29.6475225 16.7828125,29.3795045 16.64375,29.1099099 C16.6359375,29.0972973 16.621875,29.0704955 16.615625,29.0578829 L16.575,28.9853604 C16.5453125,28.9427928 16.4859375,28.8576577 16.45625,28.8166667 C16.3875,28.6921171 16.25,28.443018 16.18125,28.3184685 C16.1734375,28.3058559 16.1578125,28.2790541 16.1515625,28.2648649 L16.109375,28.1891892 C16.078125,28.1371622 16.0171875,28.0346847 15.9859375,27.9826577 L15.8515625,27.7540541 C15.8390625,27.731982 15.8125,27.6878378 15.7984375,27.6641892 C15.7390625,27.5601351 15.61875,27.3504505 15.5578125,27.2463964 C15.54375,27.2227477 15.5171875,27.1738739 15.503125,27.1486486 C15.396875,26.9704955 15.2953125,26.7907658 15.1953125,26.611036 C15.1875,26.5968468 15.1703125,26.5684685 15.1625,26.5542793 L15.0140625,26.2972973 C14.9984375,26.2720721 14.96875,26.2216216 14.9546875,26.1948198 C14.940625,26.1711712 14.9140625,26.1238739 14.9,26.1002252 L14.7421875,25.8227477 C14.734375,25.8101351 14.7203125,25.7833333 14.7125,25.7707207 L14.584375,25.538964 C14.5734375,25.520045 14.553125,25.4837838 14.5421875,25.4648649 C14.4828125,25.3592342 14.3625,25.1495495 14.303125,25.0439189 C14.290625,25.0218468 14.265625,24.9792793 14.253125,24.9587838 C14.15625,24.7963964 14.059375,24.6324324 13.965625,24.470045 C9.6328125,16.8835586 5.29375,9.3018018 0.9515625,1.72004505 C0.6796875,1.24707207 0.4328125,0.75518018 0.1,0.320045045 L0.0921875,0.249099099 L0.0859375,0.171846847 Z" id="Shape"></path>
                    </g>
                    <g id="#089156ff" transform="translate(16.875000, 0.157658)" fill-rule="nonzero" fill="#089156">
                        <path d="M9.31875,0.162387387 C9.6515625,0.597522523 9.8984375,1.08941441 10.1703125,1.56238739 C14.5125,9.14414414 18.8515625,16.7259009 23.184375,24.3123874 C21.178125,27.8376126 19.15625,31.354955 17.1421875,34.877027 C16.871875,33.1900901 16.3671875,31.5536036 16.0453125,29.8761261 C15.546875,28.0772523 15.2703125,26.2247748 14.7546875,24.4290541 C14.1609375,21.5281532 13.4375,18.6524775 12.7890625,15.7626126 C11.8,11.5484234 10.85,7.32477477 9.909375,3.09797297 C9.690625,2.12522523 9.4,1.16193694 9.31875,0.162387387 Z" id="Shape"></path>
                    </g>
                    <g id="#10985bff" transform="translate(54.218750, 0.630631)"></g>
                    <g id="#f9c941ff" transform="translate(57.343750, 20.810811)" fill-rule="nonzero" fill="#F9C941">
                        <path d="M8.5078125,0.100900901 C11.225,4.85112613 13.959375,9.59346847 16.6546875,14.3578829 C16.6671875,14.3783784 16.6921875,14.4225225 16.7046875,14.443018 C16.7671875,14.5470721 16.8921875,14.7536036 16.953125,14.8560811 C16.965625,14.8765766 16.990625,14.9191441 17.003125,14.9396396 L17.128125,15.1556306 C17.1359375,15.1698198 17.1515625,15.1997748 17.1609375,15.213964 L17.3171875,15.4882883 C17.3328125,15.5150901 17.3625,15.5702703 17.378125,15.5970721 C17.3921875,15.6207207 17.4203125,15.6695946 17.434375,15.6948198 L17.5875,15.9628378 C17.59375,15.9738739 17.60625,15.9959459 17.6125,16.006982 L17.765625,16.2718468 C17.771875,16.2828829 17.784375,16.3033784 17.790625,16.3144144 L17.94375,16.5824324 C17.959375,16.6092342 17.9890625,16.6612613 18.0046875,16.6880631 C18.01875,16.7148649 18.0484375,16.7668919 18.0625,16.7921171 L18.2203125,17.0727477 C18.2421875,17.1279279 18.2859375,17.2351351 18.3078125,17.2887387 L18.3515625,17.3754505 L18.371875,17.4211712 L18.40625,17.4668919 L18.4984375,17.6072072 C18.53125,17.6592342 18.5953125,17.7632883 18.628125,17.8153153 C18.646875,17.8468468 18.6875,17.9099099 18.70625,17.9414414 L18.809375,18.106982 C18.840625,18.1779279 18.903125,18.3213964 18.934375,18.3923423 L18.98125,18.4774775 L18.9984375,18.5105856 L19.0125,18.5310811 C19.08125,18.6335586 19.2171875,18.8400901 19.2859375,18.9425676 C19.303125,18.9709459 19.3375,19.0277027 19.35625,19.0560811 L19.45,19.2137387 C19.4640625,19.238964 19.4921875,19.2878378 19.50625,19.3114865 L19.6640625,19.5905405 C19.678125,19.6157658 19.70625,19.6662162 19.7203125,19.6914414 C19.734375,19.7166667 19.7625,19.7655405 19.7765625,19.7907658 L19.9328125,20.0603604 C19.9390625,20.072973 19.953125,20.0966216 19.9609375,20.1076577 L20.103125,20.3599099 C20.1125,20.3756757 20.13125,20.4087838 20.140625,20.4245495 L20.284375,20.6783784 C20.3015625,20.7067568 20.334375,20.7650901 20.3515625,20.7934685 C20.365625,20.8186937 20.3953125,20.8691441 20.409375,20.8943694 C20.525,21.0882883 20.6359375,21.2853604 20.7390625,21.4871622 C20.7546875,21.5202703 20.7859375,21.5864865 20.8,21.6195946 L20.871875,21.7835586 C20.890625,21.8150901 20.928125,21.8797297 20.9453125,21.9112613 C20.96875,21.9427928 21.0140625,22.0027027 21.0375,22.0326577 L21.1453125,22.1871622 C21.1640625,22.2171171 21.2015625,22.277027 21.221875,22.3085586 L21.3796875,22.5844595 C21.39375,22.6096847 21.421875,22.6601351 21.4359375,22.6853604 C21.45,22.7105856 21.478125,22.7594595 21.49375,22.7846847 L21.65,23.0558559 C21.65625,23.0684685 21.66875,23.0905405 21.675,23.1015766 L21.8234375,23.3632883 C21.8296875,23.3743243 21.8421875,23.3948198 21.8484375,23.4058559 L22,23.6722973 C22.015625,23.6990991 22.046875,23.7527027 22.0625,23.7810811 C22.078125,23.8078829 22.109375,23.8614865 22.1234375,23.8882883 L22.2796875,24.1594595 C22.2859375,24.1704955 22.296875,24.1925676 22.303125,24.2036036 L22.46875,24.5157658 L22.4671875,24.6576577 C18.5578125,23.5240991 14.7109375,22.1792793 10.790625,21.0867117 C7.2328125,19.9279279 3.6421875,18.8731982 0.084375,17.7207207 C0.5796875,17.4810811 1.109375,17.3281532 1.6046875,17.0916667 C1.66875,16.8788288 1.7359375,16.6675676 1.8015625,16.4578829 C2.41875,16.0668919 3.115625,15.831982 3.7234375,15.4268018 C3.746875,14.9081081 3.7453125,14.390991 3.74375,13.8738739 C4.425,13.3204955 5.146875,12.8081081 5.7078125,12.1222973 C5.7640625,11.4475225 5.259375,10.6576577 5.7796875,10.0885135 C7.3796875,8.05157658 8.35,5.52747748 8.5234375,2.93400901 C8.809375,1.98490991 8.2953125,1.04527027 8.5078125,0.100900901 Z" id="Shape"></path>
                    </g>
                    <g id="#e3b73aff" transform="translate(40.312500, 24.909910)" fill-rule="nonzero" fill="#E3B73A">
                        <path d="M5.771875,10.0853604 C7.5734375,10.7538288 9.4375,11.229955 11.2578125,11.8369369 C13.2140625,12.4218468 15.1546875,13.0540541 17.115625,13.6216216 C20.6734375,14.7740991 24.2640625,15.8288288 27.821875,16.9876126 C27.76875,17.7554054 27.91875,18.5421171 27.7296875,19.2957207 C27.584375,20.0288288 26.715625,20.1439189 26.3578125,20.7288288 C21.55,20.7304054 16.74375,20.7445946 11.9375,20.7240991 L11.834375,20.7162162 C9.8484375,17.1531532 7.7828125,13.6342342 5.771875,10.0853604 Z" id="Shape"></path>
                    </g>
                    <g id="#e8b835ff" transform="translate(66.562500, 35.157658)" fill-rule="nonzero" fill="#E8B835">
                        <path d="M1.571875,6.73986486 C5.4921875,7.83243243 9.3390625,9.17725225 13.2484375,10.3108108 L13.2828125,10.4400901 C8.89375,10.540991 4.4984375,10.4574324 0.1078125,10.4810811 C0.465625,9.89617117 1.334375,9.78108108 1.4796875,9.04797297 C1.66875,8.29436937 1.51875,7.50765766 1.571875,6.73986486 Z" id="Shape"></path>
                    </g>
                    <g id="#296ad9ff" transform="translate(13.906250, 45.563063)" fill-rule="nonzero" fill="#296AD9">
                        <path d="M9.2328125,8.36689189 C10.84375,5.59527027 12.375,2.77162162 14.0390625,0.0331081081 C22.10625,0.0630630631 30.175,-0.0126126126 38.240625,0.0630630631 L38.34375,0.0709459459 C34.2640625,0.203378378 30.1734375,0.0362612613 26.09375,0.140315315 C25.315625,0.646396396 24.796875,1.46621622 24.0515625,2.01801802 C23.359375,2.52725225 22.85,3.23671171 22.1890625,3.78063063 C21.2625,4.46959459 20.5734375,5.425 19.6328125,6.09977477 C18.5453125,7.26171171 17.290625,8.24076577 16.19375,9.3963964 C15.371875,10.0333333 14.684375,10.820045 13.91875,11.5216216 C13.0765625,12.1380631 12.43125,12.9736486 11.64375,13.6547297 C11.6234375,13.6720721 11.584375,13.7067568 11.5640625,13.7256757 C11.521875,13.7587838 11.4390625,13.8281532 11.396875,13.8612613 C11.3765625,13.8786036 11.3390625,13.9101351 11.31875,13.9274775 C10.6984375,14.4114865 10.2234375,15.05 9.6140625,15.5466216 C9.59375,15.563964 9.5546875,15.5970721 9.5359375,15.6128378 C9.515625,15.6301802 9.4765625,15.6632883 9.45625,15.6790541 C8.5671875,16.4153153 7.8546875,17.3470721 6.921875,18.0328829 C5.9828125,18.9725225 4.9234375,19.7797297 4.03125,20.7698198 C2.7125,21.863964 1.571875,23.1551802 0.2125,24.2036036 C0.55,23.461036 0.996875,22.779955 1.3890625,22.0689189 C4.0046875,17.5015766 6.6171875,12.9342342 9.2328125,8.36689189 Z" id="Shape"></path>
                    </g>
                    <g id="#2a71e9ff" transform="translate(14.062500, 45.563063)" fill-rule="nonzero" fill="#2A71E9">
                        <path d="M38.1875,0.0709459459 C42.99375,0.0914414414 47.8,0.0772522523 52.6078125,0.0756756757 C56.9984375,0.052027027 61.39375,0.135585586 65.7828125,0.0346846847 L65.875,0.0283783784 L65.9375,0.0457207207 L65.9375,0.0583333333 C61.303125,8.14144144 56.6828125,16.234009 52.0484375,24.3186937 C34.715625,24.313964 17.3828125,24.3344595 0.0515625,24.3060811 L0.05625,24.2036036 C1.415625,23.1551802 2.55625,21.863964 3.875,20.7698198 C4.7671875,19.7797297 5.8265625,18.9725225 6.765625,18.0328829 C7.6984375,17.3470721 8.4109375,16.4153153 9.3,15.6790541 C9.3203125,15.6632883 9.359375,15.6301802 9.3796875,15.6128378 C9.3984375,15.5970721 9.4375,15.563964 9.4578125,15.5466216 C10.0671875,15.05 10.5421875,14.4114865 11.1625,13.9274775 C11.1828125,13.9101351 11.2203125,13.8786036 11.240625,13.8612613 C11.2828125,13.8281532 11.365625,13.7587838 11.4078125,13.7256757 C11.428125,13.7067568 11.4671875,13.6720721 11.4875,13.6547297 C12.275,12.9736486 12.9203125,12.1380631 13.7625,11.5216216 C14.528125,10.820045 15.215625,10.0333333 16.0375,9.3963964 C17.134375,8.24076577 18.3890625,7.26171171 19.4765625,6.09977477 C20.4171875,5.425 21.10625,4.46959459 22.0328125,3.78063063 C22.69375,3.23671171 23.203125,2.52725225 23.8953125,2.01801802 C24.640625,1.46621622 25.159375,0.646396396 25.9375,0.140315315 C30.0171875,0.0362612613 34.1078125,0.203378378 38.1875,0.0709459459 Z" id="Shape"></path>
                    </g>
                    <g id="#286ee6ff" transform="translate(23.281250, 59.121622)"></g>
                </g>
            </g>
        </g>
    </g>
</svg>