<svg xmlns="http://www.w3.org/2000/svg" width="80" height="70">
  <g fill="none">
    <path fill="#0BA25E" d="M25.84375.69054088c.0609375-.0882883.1796875-.26486486.240625-.35315315L26.19375.3200454c.08125.99954954.371875 1.96283783.590625 2.93558557C27.725 7.48243277 28.675 11.7060814 29.6640625 15.9202706c.6484375 2.8898649 1.371875 5.7655406 1.965625 8.6664415.515625 1.7957207.7921875 3.6481982 1.290625 5.447072.321875 1.6774775.8265625 3.313964 1.096875 5.0009009-.109375.1844595-.21875.3704955-.3296875.554955-.0265625.0425675-.0828125.1308558-.109375.175l-.040625.0709459c-.00625.0126126-.0203125.0394144-.028125.0520271-.0609375.1135135-.1828125.3389639-.24375.4509009-.0109375.0204955-.034375.0614864-.046875.0819819l-.1109375.1986487c-.0140625.0236486-.040625.0693694-.053125.093018l-.1296875.2286036c-.00625.0126126-.0203125.0378378-.028125.0504505l-.1609375.2837837c-.0140625.0236487-.0421875.0740991-.05625.0993244-.015625.0268018-.046875.0788288-.0625.1056306l-.1578125.2743243c-.0125.0204955-.0375.0646397-.05.0851352l-.096875.1655405c-.015625.0283784-.05.0867117-.065625.1150901-.0625.1087838-.1859375.3263513-.2484375.4367117-.0109375.0189189-.034375.0583333-.0453125.0788288l-.0984375.1655406c-.015625.0299549-.05.0867117-.0671875.1166666-.0578125.1024775-.1765625.3058559-.234375.4083334-.0140625.0236486-.040625.0725225-.0546875.0961711l-.1171875.2128379c-.0109375.0189189-.0328125.0583333-.04375.0772522l-.1203125.2128379c-.0125.022072-.0375.0662162-.05.0882883-.0625.104054-.184375.3137387-.2453125.4193693-.0140625.0236487-.0421875.0725225-.05625.0977478l-.1109375.2018018c-.0109375.0189189-.03125.0551802-.040625.0740991l-.128125.2238738c-.0109375.0204955-.034375.05991-.0453125.0788289-.065625.1135135-.1953125.3389639-.2609375.4524775-.0109375.0204954-.0359375.0614864-.0484375.0819819l-.09375.1560811c-.015625.0283784-.0484375.0835586-.0640625.111937-.059375.104054-.1765625.3105855-.2359375.4146396-.009375.0173423-.03125.0551802-.040625.0725225l-.128125.2301802c-.009375.0173423-.028125.0504504-.0375.0677928l-.13125.2317567c-.0109375.0173424-.0328125.0551802-.04375.0725226-.0609375.104054-.184375.309009-.2453125.413063-.0171875.0268018-.0484375.0835586-.065625.111937l-.0921875.1734234c-.0125.0220721-.0359375.0662162-.046875.0867117l-.1609375.2806306c-.0125.0236487-.040625.070946-.053125.0945946-.0140625.0220721-.0390625.0677928-.0515625.0898649-.2640625.4493243-.503125.9128378-.7953125 1.3448198-1.6640625 2.7385135-3.1953125 5.5621622-4.80625 8.3337838-2.615625 4.5673423-5.228125 9.1346847-7.84375 13.702027-.3921875.7110361-.8390625 1.3921171-1.1765625 2.1346847-.0171875.0252252-.0515625.0756757-.06875.1009009-.6265625-.9112613-1.1109375-1.9171171-1.684375-2.8630631C9.75 62.4340094 7.1328125 57.8650904 4.51875 53.2930184 3.065625 50.721622 1.5515625 48.1817571.1375 45.5867121c5.6-9.7511262 11.175-19.5195946 16.7640625-29.2770271.0046875-.0094594.015625-.0268018.0203125-.0362612l.153125-.2648649c.00625-.011036.01875-.0331081.0265625-.0441441l.1546875-.2664415c.0140625-.0236486.0421875-.0740991.0578125-.0977477.015625-.0283784.046875-.0835586.0625-.111937l.1546875-.2774774c.0109375-.018919.0328125-.0567568.04375-.0756757l.115625-.1860361c.0203125-.0299549.0609375-.0914414.08125-.1229729.05625-.0851352.1703125-.256982.228125-.3421171.00625-.0283784.0171875-.0835586.0234375-.1103604l.1359375-.2632883c.00625-.011036.01875-.0331081.025-.0441441l.15625-.2648649c.015625-.0252252.046875-.0788288.0625-.1056306.0171875-.029955.0515625-.0914415.0703125-.122973l.13125-.2317568c.0140625-.0252252.0421875-.0740991.05625-.0977477l.109375-.1939189c.0125-.0204955.0375-.0646397.05-.0867117.0609375-.1056307.1828125-.3168919.2453125-.4225226.0125-.022072.0375-.0662162.05-.0882883l.1140625-.2096846c.009375-.0157658.028125-.0504505.0375-.0662163l.15-.2648648c.01875-.0315316.0578125-.0961712.078125-.1277027l.1015625-.1545045c.021875-.0315316.0640625-.093018.0859375-.122973.01875-.0315315.0578125-.0945946.078125-.1261261l.084375-.163964c.028125-.0614865.0859375-.1844595.1140625-.2459459l.0859375-.1213964c.015625-.0220721.0453125-.0646397.0609375-.0867117.0578125-.0488739.175-.1497748.2328125-.2002253l-.0109375-.1844594c.009375-.0220721.03125-.0662162.0421875-.0882883l.1328125-.26644146c.0109375-.01891892.0328125-.05833333.04375-.07725225l.1171875-.1923424c.021875-.03153157.0640625-.0945946.0859375-.12612616.053125-.0882883.1609375-.2617117.2140625-.3484234.015625-.03153156.04375-.09301804.059375-.12454957l.0828125-.1813063c.025-.0472973.078125-.14346848.1046875-.19234235l.103125-.1481982.0875-.11981984c.01875-.03153153.0578125-.0945946.0765625-.12612613l.0765625-.1623874c.0171875-.03626126.053125-.11036035.0703125-.14662162l.134375-.2617117c.0203125-.03153155.059375-.09774777.078125-.13085587l.103125-.1545045c.021875-.03153154.065625-.09144145.0875-.12297298.0203125-.03153154.059375-.09617118.078125-.1277027l.0796875-.16396398c.0234375-.04572072.06875-.13558558.090625-.1813063l.10625-.17657658c.01875-.02995497.05625-.08986488.0765625-.11981983.05625-.0882883.1703125-.26486487.228125-.35157658.00625-.0268018.0203125-.0804054.0265625-.1072072L22.85 5.91689222c.0046875-.01103603.0171875-.03153153.0234375-.04256756l.15625-.2695946c.015625-.0268018.0453125-.07882883.0609375-.10563063.015625-.02522522.0453125-.07882883.0609375-.10405405l.15625-.2759009c.00625-.0110361.01875-.03310816.025-.04572077l.146875-.256982c.0078125-.011036.021875-.03468463.028125-.04729724l.1578125-.26801803c.0140625-.02522522.0421875-.0725225.05625-.09774774.015625-.0268018.046875-.081982.0625-.11036038l.15-.26644143c.009375-.01734236.028125-.05045047.0375-.06621624l.1265625-.20653153c.0203125-.02995493.0609375-.09144142.0796875-.1213964.0578125-.0867117.1703125-.2601351.228125-.34684682.0046875-.0268018.0171875-.0804054.0234375-.1072072l.1328125-.256982c.0109375-.0189189.034375-.0583333.0453125-.0788288l.11875-.1876126c.021875-.02995496.0625-.09144144.084375-.122973.0546875-.08828826.1640625-.26328826.21875-.35157655.0078125-.0252252.021875-.07567565.0296875-.1009009l.1375-.2601351c.00625-.0126126.01875-.0346847.025-.0472973l.159375-.27117118c.0125-.02364863.040625-.07094592.0546875-.0945946.0140625-.0268018.0421875-.07725222.05625-.10247745l.15625-.28063064c.0078125-.011036.0203125-.03468464.0265625-.04572068l.1484375-.2538289c.0046875-.0078829.015625-.02522523.0203125-.03310812z"/>
    <path fill="#FCCD48" d="M26.1796875.17184685C31.2546875.1481982 36.33125.1686937 41.4078125.1608108c4.2.01576578 8.403125-.0331081 12.6015625.02364866.0828125.1608108.1671875.32004504.25625.47927928.0125.0204955.0359375.06463964.0484375.0867117.40625.7141892.81875 1.42522524 1.2203125 2.140991.0078125.0126126.0203125.03626126.028125.0472973.778125 1.34797297 1.553125 2.69752252 2.3171875 4.05337838.00625.01103603.0203125.0331081.0265625.04572072.1390625.2412162.2828125.48243243.425.72522522.0125.0204955.0359375.06306307.0484375.08513514.1953125.34684685.3921875.69211712.590625 1.0373874.0078125.01103602.0203125.0331081.0265625.0457207.1984375.3436937.39375.69054055.590625 1.0373874.0125.0204955.0359375.0614865.0484375.081982.1984375.3373874.390625.6779279.58125 1.0184684.0125.0204955.0359375.0630631.0484375.0835586 1.865625 3.2509009 3.7265625 6.5033784 5.5859375 9.759009-.2125.9443694.3015625 1.884009.015625 2.8331081-.1734375 2.5934685-1.14375 5.1175676-2.74375 7.1545045-.5203125.5691442-.015625 1.359009-.071875 2.0337838-.5609375.6858108-1.2828125 1.1981982-1.9640625 1.7515766.0015625.5171171.003125 1.0342342-.0203125 1.5529279-.6078125.4051802-1.3046875.6400901-1.921875 1.0310811-.065625.2096847-.1328125.4209459-.196875.6337838-.4953125.2364865-1.025.3894144-1.5203125.629054-1.9609375-.5675675-3.9015625-1.1997747-5.8578125-1.7846847-1.8203125-.6069819-3.684375-1.0831081-5.4859375-1.7515765l-.103125-.1860361c-.009375-.0141892-.025-.0425675-.0328125-.0567567L45.8 34.4986486l-.0625-.1072072c-.0140625-.0236486-.0390625-.0693693-.053125-.093018-.1109375-.1986486-.2125-.402027-.303125-.6101351l-.009375-.0204955-.0109375-.0157658c-.06875-.1103603-.2078125-.3326576-.278125-.443018-.0078125-.0126126-.0234375-.0378378-.03125-.052027l-.0453125-.0725225c-.0265625-.0457208-.08125-.1355856-.1078125-.1813063-.0671875-.1150901-.203125-.3452703-.2703125-.4603604-.0171875-.0283784-.05-.0867117-.0671875-.1150901l-.0953125-.163964c-.0125-.022072-.0375-.0646396-.05-.0867117l-.1515625-.2632883c-.00625-.011036-.0203125-.0331081-.0265625-.0457207l-.159375-.2759009c-.0140625-.0252252-.0421875-.0756757-.05625-.0993243-.015625-.0283784-.0484375-.0867117-.0640625-.1150901l-.1296875-.2301802c-.015625-.0268018-.046875-.0835585-.0625-.1103603l-.1-.1781532c-.0140625-.0236486-.040625-.0709459-.0546875-.0945946-.0609375-.1135135-.184375-.3389639-.246875-.4524775-.00625-.0126126-.021875-.0394144-.028125-.052027l-.0421875-.0740991c-.0296875-.0441441-.0875-.1324324-.1171875-.1765766-.1546875-.2617117-.3-.5297297-.4390625-.7993243-.0078125-.0126126-.021875-.0394144-.028125-.052027l-.040625-.0725225c-.0296875-.0425676-.0890625-.1277027-.11875-.1686937-.06875-.1245496-.20625-.3736487-.275-.4981982-.0078125-.0126126-.0234375-.0394144-.0296875-.0536036l-.0421875-.0756757c-.03125-.052027-.0921875-.1545045-.1234375-.2065315l-.134375-.2286036c-.0125-.0220721-.0390625-.0662163-.053125-.0898649-.059375-.1040541-.1796875-.3137387-.240625-.4177928-.0140625-.0236487-.040625-.0725225-.0546875-.0977478-.10625-.1781531-.2078125-.3578828-.3078125-.5376126-.0078125-.0141892-.025-.0425675-.0328125-.0567567l-.1484375-.256982c-.015625-.0252252-.0453125-.0756757-.059375-.1024775-.0140625-.0236486-.040625-.0709459-.0546875-.0945946l-.1578125-.2774775c-.0078125-.0126126-.021875-.0394144-.0296875-.052027l-.128125-.2317567c-.0109375-.018919-.03125-.0551802-.0421875-.0740991-.059375-.1056307-.1796875-.3153154-.2390625-.420946-.0125-.0220721-.0375-.0646396-.05-.0851351-.096875-.1623874-.19375-.3263514-.2875-.4887388C35.7265625 16.8835586 31.3875 9.3018018 27.0453125 1.72004505c-.271875-.47297298-.51875-.96486487-.8515625-1.4L26.1859375.2490991l-.00625-.07725225z"/>
    <path fill="#089156" d="M26.19375.3200454c.3328125.43513512.5796875.927027.8515625 1.4 4.3421875 7.58175674 8.68125 15.1635135 13.0140625 22.75-2.00625 3.5252252-4.028125 7.0425676-6.0421875 10.5646396-.2703125-1.6869369-.775-3.3234234-1.096875-5.0009009-.4984375-1.7988738-.775-3.6513513-1.290625-5.447072-.59375-2.9009009-1.3171875-5.7765766-1.965625-8.6664415C28.675 11.7060814 27.725 7.48243277 26.784375 3.25563097c-.21875-.97274774-.509375-1.93603603-.590625-2.93558558z"/>
    <path fill="#F9C941" d="M65.8515625 20.9117119c2.7171875 4.75022523 5.4515625 9.49256757 8.146875 14.256982.0125.0204955.0375.0646396.05.0851351.0625.1040541.1875.3105856.2484375.4130631.0125.0204955.0375.063063.05.0835585l.125.215991c.0078125.0141892.0234375.0441442.0328125.0583334l.15625.2743243c.015625.0268018.0453125.081982.0609375.1087838.0140625.0236486.0421875.0725225.05625.0977477l.153125.268018c.00625.0110361.01875.0331081.025.0441442l.153125.2648648c.00625.0110361.01875.0315316.025.0425676l.153125.268018c.015625.0268018.0453125.0788289.0609375.1056307.0140625.0268018.04375.0788288.0578125.104054l.1578125.2806306c.021875.0551802.065625.1623874.0875.215991l.04375.0867118.0203125.0457207.034375.0457207.0921875.1403153c.0328125.052027.096875.1560811.1296875.2081081.01875.0315315.059375.0945946.078125.1261261l.103125.1655406c.03125.0709459.09375.2144144.125.2853603l.046875.0851352.0171875.0331081.0140625.0204955c.06875.1024775.2046875.309009.2734375.4114865.0171875.0283783.0515625.0851351.0703125.1135135l.09375.1576576c.0140625.0252253.0421875.0740991.05625.0977478l.1578125.279054c.0140625.0252253.0421875.0756757.05625.1009009.0140625.0252253.0421875.0740991.05625.0993244l.15625.2695946c.00625.0126126.0203125.0362612.028125.0472973l.1421875.2522522c.009375.0157658.028125.0488739.0375.0646396l.14375.2538289c.0171875.0283784.05.0867117.0671875.1150901.0140625.0252252.04375.0756756.0578125.1009009.115625.1939189.2265625.390991.3296875.5927928.015625.0331081.046875.0993243.0609375.1324324l.071875.163964c.01875.0315315.05625.0961711.0734375.1277027.0234375.0315315.06875.0914414.0921875.1213964l.1078125.1545045c.01875.0299549.05625.0898648.0765625.1213964l.1578125.2759009c.0140625.0252252.0421875.0756756.05625.1009009.0140625.0252252.0421875.0740991.0578125.0993243l.15625.2711712c.00625.0126126.01875.0346846.025.0457207l.1484375.2617117c.00625.011036.01875.0315315.025.0425676l.1515625.2664414c.015625.0268018.046875.0804054.0625.1087838.015625.0268018.046875.0804054.0609375.1072072l.15625.2711712c.00625.011036.0171875.0331081.0234375.0441441l.165625.3121622-.0015625.1418919c-3.909375-1.1335586-7.75625-2.4783784-11.6765625-3.570946-3.5578125-1.1587838-7.1484375-2.2135135-10.70625-3.365991.4953125-.2396396 1.025-.3925675 1.5203125-.629054.0640625-.2128379.13125-.4240991.196875-.6337838.6171875-.390991 1.3140625-.6259009 1.921875-1.0310811.0234375-.5186937.021875-1.0358108.0203125-1.5529279.68125-.5533784 1.403125-1.0657658 1.9640625-1.7515766.05625-.6747748-.4484375-1.4646396.071875-2.0337838 1.6-2.03693692 2.5703125-4.56103602 2.74375-7.1545045.2859375-.9490991-.228125-1.88873873-.015625-2.8331081z"/>
    <path fill="#E3B73A" d="M46.084375 34.9952704c1.8015625.6684684 3.665625 1.1445946 5.4859375 1.7515765 1.95625.5849099 3.896875 1.2171172 5.8578125 1.7846847 3.5578125 1.1524775 7.1484375 2.2072072 10.70625 3.365991-.053125.7677928.096875 1.5545045-.0921875 2.3081081-.1453125.7331081-1.0140625.8481982-1.371875 1.4331081-4.8078125.0015766-9.6140625.0157658-14.4203125-.0047297l-.103125-.0078829c-1.9859375-3.563063-4.0515625-7.081982-6.0625-10.6308558z"/>
    <path fill="#E8B835" d="M68.134375 41.89752286c3.9203125 1.09256757 7.7671875 2.4373874 11.6765625 3.57094594l.034375.1292793c-4.3890625.1009009-8.784375.0173423-13.175.040991.3578125-.58490993 1.2265625-.70000002 1.371875-1.43310813.1890625-.7536036.0390625-1.5403153.0921875-2.3081081z"/>
    <path fill="#296AD9" d="M23.1390625 53.9299549c1.6109375-2.77162163 3.1421875-5.59527028 4.80625-8.3337838 8.0671875.02995496 16.1359375-.0457207 24.2015625.02995496l.103125.0078829c-4.0796875.13243242-8.1703125-.0346847-12.25.06936935-.778125.5060811-1.296875 1.325901-2.0421875 1.8777028-.6921875.50923423-1.2015625 1.2186937-1.8625 1.7626126-.9265625.68896397-1.615625 1.64436938-2.55625 2.31914415-1.0875 1.16193694-2.3421875 2.140991-3.4390625 3.29662163-.821875.6369369-1.509375 1.4236486-2.275 2.1252252-.8421875.6164415-1.4875 1.452027-2.275 2.1331081-.0203125.0173424-.059375.0520271-.0796875.070946-.0421875.0331081-.125.1024775-.1671875.1355856-.0203125.0173423-.0578125.0488738-.078125.0662162-.6203125.484009-1.0953125 1.1225225-1.7046875 1.6191441-.0203125.0173424-.059375.0504505-.078125.0662162-.0203125.0173424-.059375.0504505-.0796875.0662163-.8890625.7362612-1.6015625 1.668018-2.534375 2.3538288-.9390625.9396396-1.9984375 1.7468468-2.890625 2.7369369-1.31875 1.0941442-2.459375 2.3853604-3.81875 3.4337838.3375-.7425676.784375-1.4236486 1.1765625-2.1346847 2.615625-4.5673423 5.228125-9.1346847 7.84375-13.702027z"/>
    <path fill="#2A71E9" d="M52.25 45.63400895c4.80625.0204955 9.6125.0063063 14.4203125.00472973 4.390625-.02364865 8.7859375.0599099 13.175-.040991l.0921875-.0063063.0625.01734234v.0126126C75.365625 53.70450445 70.7453125 61.797072 66.1109375 69.8817567c-17.3328125-.0047297-34.665625.0157658-51.996875-.0126126l.0046875-.1024775c1.359375-1.0484234 2.5-2.3396396 3.81875-3.4337838.8921875-.9900901 1.9515625-1.7972973 2.890625-2.7369369.9328125-.6858108 1.6453125-1.6175676 2.534375-2.3538288.0203125-.0157658.059375-.0488739.0796875-.0662163.01875-.0157657.0578125-.0488738.078125-.0662162.609375-.4966216 1.084375-1.1351351 1.7046875-1.6191441.0203125-.0173424.0578125-.0488739.078125-.0662162.0421875-.0331081.125-.1024775.1671875-.1355856.0203125-.0189189.059375-.0536036.0796875-.070946.7875-.6810811 1.4328125-1.5166666 2.275-2.1331081.765625-.7015766 1.453125-1.4882883 2.275-2.1252252 1.096875-1.15563063 2.3515625-2.1346847 3.4390625-3.29662163.940625-.67477477 1.6296875-1.63018018 2.55625-2.31914414.6609375-.54391892 1.1703125-1.25337838 1.8625-1.7626126C38.703125 47.02927923 39.221875 46.2094594 40 45.7033783c4.0796875-.10405404 8.1703125.06306308 12.25-.06936935z"/>
  </g>
</svg>