<svg xmlns="http://www.w3.org/2000/svg" width="20" height="21">
  <path fill="#181818" fill-rule="evenodd" d="M8.093385 0c2.230881 0 4.137476.8009395 5.719845 2.4028438 1.582368 1.6019043 2.37354 3.5320374 2.37354 5.7904597 0 1.9170314-.596622 3.6370831-1.789883 5.1602057l5.330739 5.3965508c.181584.1575643.272374.361082.272374.6105587 0 .2494768-.084305.4595594-.252918.6302541-.168613.1706947-.376134.2560408-.622568.2560408-.246435 0-.44747-.0919112-.603113-.2757362l-5.33074-5.3965509c-1.504547 1.207993-3.203623 1.8119806-5.097276 1.8119806-2.23088 0-4.137475-.8009395-5.719844-2.4028438C.791172 12.381859 0 10.4517259 0 8.1933035c0-2.2584223.791172-4.1885554 2.373541-5.7904597C3.95591.8009395 5.862505 0 8.093385 0zm0 15.1260989c1.893653 0 3.508423-.6762022 4.844357-2.0286317 1.335936-1.3524271 2.003892-2.9871323 2.003892-4.9041637 0-1.9170313-.667956-3.5517365-2.003892-4.9041636-1.335934-1.3524295-2.950704-2.0286317-4.844357-2.0286317-1.893653 0-3.508423.6762022-4.844357 2.0286317C1.913092 4.641567 1.245136 6.2762722 1.245136 8.1933035c0 1.9170314.667956 3.5517366 2.003892 4.9041637 1.335934 1.3524295 2.950704 2.0286317 4.844357 2.0286317z"/>
</svg>