<?xml version="1.0" encoding="UTF-8" standalone="no"?>
<svg width="20px" height="21px" viewBox="0 0 20 21" version="1.1" xmlns="http://www.w3.org/2000/svg" xmlns:xlink="http://www.w3.org/1999/xlink">
    <!-- Generator: Sketch 43.2 (39069) - http://www.bohemiancoding.com/sketch -->
    <title>search</title>
    <desc>Created with Sketch.</desc>
    <defs></defs>
    <g id="Page-1" stroke="none" stroke-width="1" fill="none" fill-rule="evenodd">
        <g id="search-&gt;-empty-copy" transform="translate(-499.000000, -40.000000)" fill="#181818">
            <g id="Group" transform="translate(0.000000, 30.000000)">
                <path d="M510.906615,10 C508.675734,10 506.769139,10.8009395 505.18677,12.4028438 C503.604402,14.0047481 502.81323,15.9348812 502.81323,18.1933035 C502.81323,20.1103349 503.409852,21.8303866 504.603113,23.3535092 L499.272374,28.75006 C499.09079,28.9076243 499,29.111142 499,29.3606187 C499,29.6100955 499.084305,29.8201781 499.252918,29.9908728 C499.421531,30.1615675 499.629052,30.2469136 499.875486,30.2469136 C500.121921,30.2469136 500.322956,30.1550024 500.478599,29.9711774 L505.809339,24.5746265 C507.313886,25.7826195 509.012962,26.3866071 510.906615,26.3866071 C513.137495,26.3866071 515.04409,25.5856676 516.626459,23.9837633 C518.208828,22.381859 519,20.4517259 519,18.1933035 C519,15.9348812 518.208828,14.0047481 516.626459,12.4028438 C515.04409,10.8009395 513.137495,10 510.906615,10 Z M510.906615,25.1260989 C509.012962,25.1260989 507.398192,24.4498967 506.062258,23.0974672 C504.726322,21.7450401 504.058366,20.1103349 504.058366,18.1933035 C504.058366,16.2762722 504.726322,14.641567 506.062258,13.2891399 C507.398192,11.9367104 509.012962,11.2605082 510.906615,11.2605082 C512.800268,11.2605082 514.415038,11.9367104 515.750972,13.2891399 C517.086908,14.641567 517.754864,16.2762722 517.754864,18.1933035 C517.754864,20.1103349 517.086908,21.7450401 515.750972,23.0974672 C514.415038,24.4498967 512.800268,25.1260989 510.906615,25.1260989 Z" id="search" transform="translate(509.000000, 20.123457) scale(-1, 1) translate(-509.000000, -20.123457) "></path>
            </g>
        </g>
    </g>
</svg>