<svg xmlns="http://www.w3.org/2000/svg" width="106" height="16">
  <g fill="none" fill-rule="evenodd" opacity=".89999998">
    <path fill="#FFF" d="M23.3540176 13h3.7420498c.6362999 0 1.1059499-.4545 1.1059499-1.1059499V8.0459503c0-.65144997-.46965-1.10594994-1.1059499-1.10594994h-1.5755999c-.07575 0-.13635-.07575-.13635-.13635V4.6826505c0-.0909.0606-.16665.13635-.16665h2.5603498V2.7737506h-3.6359998c-.6362999 0-1.0907999.45449998-1.0907999 1.10594994v3.80264978c0 .63629996.4545 1.10594993 1.0907999 1.10594993h1.5755999c.0909 0 .13635.0606.13635.13635v2.15129985c0 .07575-.04545.13635-.13635.13635h-2.6663998V13zM29.959169 2.7737506v1.7422499h1.6664999V13h2.0452499V4.5160005h1.6664999V2.7737506H29.959169zm7.5293013 0h4.5298498c.7120499 0 1.1968499.49994998 1.1968499 1.21199994v4.45409973c0 .62114996-.3636 1.07564994-.9241499 1.18169993L43.24547 13h-2.0149499l-.9241499-3.3481498h-.77265V13h-2.0452499V2.7737506zm3.7117498 5.0903997V4.6675005c0-.07575-.0606-.1515-.1212-.1515h-1.5452999v3.4844998h1.5452999c.0606 0 .1212-.07575.1212-.13635zm10.4078012-3.98444976V13h-2.0300999v-2.8178998h-1.6210499V13h-2.0300999V3.87970054c0-.65144996.43935-1.10594993 1.0908-1.10594993h3.4844998c.6514499 0 1.1059499.4545 1.1059499 1.10594996zm-3.6511498 4.60559973h1.6210499V4.7281005c0-.1515-.1212-.2424-.2727-.2424h-1.0907999c-.1515 0-.25755.10605-.25755.2424v3.75719977zM53.668173 2.7737506v1.7422499h1.6664999V13h2.0452499V4.5160005h1.6664999V2.7737506H53.668173zm8.5443513-.0606h3.5753998c.6514499 0 1.1059499.4545 1.1059499 1.10594995v8.12039955c0 .6514499-.4545 1.1059499-1.1059499 1.1059499h-3.5753998c-.6666 0-1.10595-.4545-1.10595-1.1059499V3.81910055c0-.65144996.43935-1.10594994 1.10595-1.10594994zm2.6360998 8.4536995V4.5917505c0-.0909-.07575-.16665-.1212-.16665h-1.4695499c-.07575 0-.10605.10605-.10605.16665v6.5750996c0 .0606.04545.13635.10605.13635h1.4695499c.04545 0 .1212-.0606.1212-.13635zM69.4842756 13h3.7420498c.6363 0 1.1059499-.4545 1.1059499-1.1059499V8.0459503c0-.65144997-.4696499-1.10594994-1.1059499-1.10594994h-1.5755999c-.07575 0-.13635-.07575-.13635-.13635V4.6826505c0-.0909.0606-.16665.13635-.16665h2.5603499V2.7737506h-3.6359998c-.6363 0-1.0908.45449998-1.0908 1.10594994v3.80264978c0 .63629996.4545 1.10594993 1.0908 1.10594993h1.5755999c.0909 0 .13635.0606.13635.13635v2.15129985c0 .07575-.04545.13635-.13635.13635h-2.6663999V13zM76.952977 2.7737506h4.4692497c.71205 0 1.2271499.49994998 1.2271499 1.21199994v5.0297997c0 .71204996-.5150999 1.21199996-1.2271499 1.21199996h-2.4088498V13H76.952977V2.7737506zm2.0603999 5.75699967h1.4543999c.0606 0 .1212-.07575.1212-.13635V4.6675005c0-.07575-.0606-.1515-.1212-.1515h-1.4543999v4.01474977zM85.3003783 13h4.8328497v-1.7422499h-2.7875998V8.69740026h2.3482498v-1.7119499h-2.3482498V4.5160005h2.7875998V2.7737506h-4.8328497V13zm7.4384013 0h4.8328498v-1.7422499h-2.7875999V8.69740026h2.3482499v-1.7119499h-2.3482499V4.5160005h2.7875999V2.7737506h-4.8328498V13zm7.4384014-10.2262494h4.52985c.71205 0 1.19685.49994998 1.19685 1.21199994v4.45409973c0 .62114996-.3636 1.07564994-.92415 1.18169993L105.934181 13h-2.01495l-.92415-3.3481498h-.77265V13h-2.04525V2.7737506zm3.71175 5.0903997V4.6675005c0-.07575-.0606-.1515-.1212-.1515h-1.5453v3.4844998h1.5453c.0606 0 .1212-.07575.1212-.13635z"/>
    <path id="stratostar" fill="#FFF44C" d="M9.64539007 6.35460993L8.07079647 0 6.38578254 6.34688574 0 7.92920354l6.37762238 1.69317408L8.07079646 16l1.5823178-6.38578255L16 7.92920355 9.64539007 6.35460992z"/>
  </g>
</svg>