<svg xmlns="http://www.w3.org/2000/svg" width="300" height="158.08266">
  <path fill="#22a7f0" d="M154.18294 134.40525c-18.246866.10921237-33.14385272-14.58615152-33.23836342-32.83511777-.1386157-18.246866 14.55884843-33.1207501 32.8204161-33.2320627 18.246866-.13651546 33.13545177 14.56094866 33.2593658 32.80781467.12391403 18.26156767-14.5735501 33.15015343-32.84141848 33.2593658m-97.31871894.6174699c-18.25946743.12391404-33.1480532-14.57355008-33.25726556-32.80781466-.12391403-18.26156767 14.57144985-33.1480532 32.84141848-33.2593658 18.22586363-.12391403 33.12705082 14.5735501 33.25096485 32.80781467.10291165 18.2615677-14.6008532 33.1627549-32.83511777 33.2593658m96.7495545-88.7518489c-21.10528966.1512171-39.33325352 12.1288733-48.4776889 29.5818494-9.37546154-17.3563652-27.74624158-29.0966945-48.8326291-28.9517781-12.41450563.0756086-23.82719783 4.2424804-32.98633488 11.2110694l-.300334-46.3837518C22.84456918 5.7383817 17.93001272.9603407 11.92543285 1.0002452 5.91455227 1.0359492 1.054602 5.8748971.99999582 11.8647753l.5607635 91.39184787h.02730308c.6720761 30.0102979 25.28686312 54.01601593 55.40847364 53.8248943 21.08428728-.13651547 39.31225114-12.1183721 48.48398962-29.5860499 9.35025868 17.34376375 27.76094324 29.092494 48.84733075 28.95597855 30.4198443-.1932219 54.9191183-25.02013292 54.7342973-55.44207746-.1995225-30.42194453-25.0117319-54.93171966-55.4483781-54.73849778"/>
  <path fill="#22a7f0" d="M296.70087 138.21509l-30.92810184-37.52284853L296.22201578 62.772448h-.01470166c3.76992685-4.866251 2.61899653-11.6500191-2.60429488-15.2288243-5.2778976-3.56410355-12.65393274-2.60429487-16.6296829 2.1275409v-.0210024l-26.30967892 32.7406071-26.6919222-32.39406783v.0273031c-4.045058-4.69193125-11.46099767-5.56983066-16.64438456-1.92591807-5.22119117 3.64811306-6.26500936 10.42558044-2.42577466 15.27923l30.9091997 37.50604663-30.4366462 37.9092923c-3.77622756 4.89355407-2.62529725 11.65421955 2.64629963 15.22882428 5.22959212 3.5788052 12.62662966 2.6189966 16.6023798-2.1212401l26.2739749-32.71330397 26.72132552 32.3814664c4.03665705 4.689831 11.43369458 5.55512898 16.6632867 1.91961735 5.20228903-3.6733159 6.24400698-10.43188114 2.41947395-15.27292927"/>
</svg>