<svg width="40" height="40" xmlns="http://www.w3.org/2000/svg">
  <path d="M16.187 0c4.462 0 8.275 1.582 11.44 4.747 3.164 3.165 4.747 6.978 4.747 11.44 0 3.787-1.194 7.185-3.58 10.194l10.66 10.663c.364.31.546.713.546 1.206 0 .492-.17.907-.506 1.244-.337.337-.752.506-1.245.506-.494 0-.896-.182-1.207-.545L26.38 28.795c-3.008 2.385-6.406 3.58-10.193 3.58-4.462 0-8.275-1.584-11.44-4.75C1.582 24.463 0 20.65 0 16.188c0-4.462 1.582-8.275 4.747-11.44C7.912 1.582 11.725 0 16.187 0zm0 29.883c3.787 0 7.017-1.336 9.688-4.008 2.672-2.67 4.008-5.9 4.008-9.688 0-3.788-1.336-7.017-4.008-9.69-2.67-2.67-5.9-4.007-9.688-4.007-3.788 0-7.017 1.336-9.69 4.008-2.67 2.672-4.007 5.9-4.007 9.69 0 3.786 1.336 7.016 4.008 9.687 2.672 2.672 5.9 4.008 9.69 4.008z" fill="#FFF" fill-rule="evenodd"/>
</svg>